<svg width="740" height="1107" viewBox="0 0 740 1107" fill="none" xmlns="http://www.w3.org/2000/svg">
<path fill-rule="evenodd" clip-rule="evenodd" d="M0 0H26H740V1107H26H0V0ZM26 31C30.9706 31 35 26.9706 35 22C35 17.0294 30.9706 13 26 13C21.0294 13 17 17.0294 17 22C17 26.9706 21.0294 31 26 31ZM26 531C30.9706 531 35 526.971 35 522C35 517.029 30.9706 513 26 513C21.0294 513 17 517.029 17 522C17 526.971 21.0294 531 26 531ZM35 272C35 276.971 30.9706 281 26 281C21.0294 281 17 276.971 17 272C17 267.029 21.0294 263 26 263C30.9706 263 35 267.029 35 272ZM26 781C30.9706 781 35 776.971 35 772C35 767.029 30.9706 763 26 763C21.0294 763 17 767.029 17 772C17 776.971 21.0294 781 26 781ZM35 147C35 151.971 30.9706 156 26 156C21.0294 156 17 151.971 17 147C17 142.029 21.0294 138 26 138C30.9706 138 35 142.029 35 147ZM26 656C30.9706 656 35 651.971 35 647C35 642.029 30.9706 638 26 638C21.0294 638 17 642.029 17 647C17 651.971 21.0294 656 26 656ZM35 397C35 401.971 30.9706 406 26 406C21.0294 406 17 401.971 17 397C17 392.029 21.0294 388 26 388C30.9706 388 35 392.029 35 397ZM26 906C30.9706 906 35 901.971 35 897C35 892.029 30.9706 888 26 888C21.0294 888 17 892.029 17 897C17 901.971 21.0294 906 26 906ZM35 84.5C35 89.4706 30.9706 93.5 26 93.5C21.0294 93.5 17 89.4706 17 84.5C17 79.5294 21.0294 75.5 26 75.5C30.9706 75.5 35 79.5294 35 84.5ZM26 593.5C30.9706 593.5 35 589.471 35 584.5C35 579.529 30.9706 575.5 26 575.5C21.0294 575.5 17 579.529 17 584.5C17 589.471 21.0294 593.5 26 593.5ZM35 334.5C35 339.471 30.9706 343.5 26 343.5C21.0294 343.5 17 339.471 17 334.5C17 329.529 21.0294 325.5 26 325.5C30.9706 325.5 35 329.529 35 334.5ZM26 843.5C30.9706 843.5 35 839.471 35 834.5C35 829.529 30.9706 825.5 26 825.5C21.0294 825.5 17 829.529 17 834.5C17 839.471 21.0294 843.5 26 843.5ZM35 209.5C35 214.471 30.9706 218.5 26 218.5C21.0294 218.5 17 214.471 17 209.5C17 204.529 21.0294 200.5 26 200.5C30.9706 200.5 35 204.529 35 209.5ZM26 718.5C30.9706 718.5 35 714.471 35 709.5C35 704.529 30.9706 700.5 26 700.5C21.0294 700.5 17 704.529 17 709.5C17 714.471 21.0294 718.5 26 718.5ZM35 459.5C35 464.471 30.9706 468.5 26 468.5C21.0294 468.5 17 464.471 17 459.5C17 454.529 21.0294 450.5 26 450.5C30.9706 450.5 35 454.529 35 459.5ZM26 968.5C30.9706 968.5 35 964.471 35 959.5C35 954.529 30.9706 950.5 26 950.5C21.0294 950.5 17 954.529 17 959.5C17 964.471 21.0294 968.5 26 968.5ZM35 1022C35 1026.97 30.9706 1031 26 1031C21.0294 1031 17 1026.97 17 1022C17 1017.03 21.0294 1013 26 1013C30.9706 1013 35 1017.03 35 1022ZM26 62.25C30.9706 62.25 35 58.2206 35 53.25C35 48.2794 30.9706 44.25 26 44.25C21.0294 44.25 17 48.2794 17 53.25C17 58.2206 21.0294 62.25 26 62.25ZM35 553.25C35 558.221 30.9706 562.25 26 562.25C21.0294 562.25 17 558.221 17 553.25C17 548.279 21.0294 544.25 26 544.25C30.9706 544.25 35 548.279 35 553.25ZM26 312.25C30.9706 312.25 35 308.221 35 303.25C35 298.279 30.9706 294.25 26 294.25C21.0294 294.25 17 298.279 17 303.25C17 308.221 21.0294 312.25 26 312.25ZM35 803.25C35 808.221 30.9706 812.25 26 812.25C21.0294 812.25 17 808.221 17 803.25C17 798.279 21.0294 794.25 26 794.25C30.9706 794.25 35 798.279 35 803.25ZM26 187.25C30.9706 187.25 35 183.221 35 178.25C35 173.279 30.9706 169.25 26 169.25C21.0294 169.25 17 173.279 17 178.25C17 183.221 21.0294 187.25 26 187.25ZM35 678.25C35 683.221 30.9706 687.25 26 687.25C21.0294 687.25 17 683.221 17 678.25C17 673.279 21.0294 669.25 26 669.25C30.9706 669.25 35 673.279 35 678.25ZM26 437.25C30.9706 437.25 35 433.221 35 428.25C35 423.279 30.9706 419.25 26 419.25C21.0294 419.25 17 423.279 17 428.25C17 433.221 21.0294 437.25 26 437.25ZM35 928.25C35 933.221 30.9706 937.25 26 937.25C21.0294 937.25 17 933.221 17 928.25C17 923.279 21.0294 919.25 26 919.25C30.9706 919.25 35 923.279 35 928.25ZM26 124.75C30.9706 124.75 35 120.721 35 115.75C35 110.779 30.9706 106.75 26 106.75C21.0294 106.75 17 110.779 17 115.75C17 120.721 21.0294 124.75 26 124.75ZM35 615.75C35 620.721 30.9706 624.75 26 624.75C21.0294 624.75 17 620.721 17 615.75C17 610.779 21.0294 606.75 26 606.75C30.9706 606.75 35 610.779 35 615.75ZM26 374.75C30.9706 374.75 35 370.721 35 365.75C35 360.779 30.9706 356.75 26 356.75C21.0294 356.75 17 360.779 17 365.75C17 370.721 21.0294 374.75 26 374.75ZM35 865.75C35 870.721 30.9706 874.75 26 874.75C21.0294 874.75 17 870.721 17 865.75C17 860.779 21.0294 856.75 26 856.75C30.9706 856.75 35 860.779 35 865.75ZM26 249.75C30.9706 249.75 35 245.721 35 240.75C35 235.779 30.9706 231.75 26 231.75C21.0294 231.75 17 235.779 17 240.75C17 245.721 21.0294 249.75 26 249.75ZM35 740.75C35 745.721 30.9706 749.75 26 749.75C21.0294 749.75 17 745.721 17 740.75C17 735.779 21.0294 731.75 26 731.75C30.9706 731.75 35 735.779 35 740.75ZM26 499.75C30.9706 499.75 35 495.721 35 490.75C35 485.779 30.9706 481.75 26 481.75C21.0294 481.75 17 485.779 17 490.75C17 495.721 21.0294 499.75 26 499.75ZM35 990.75C35 995.721 30.9706 999.75 26 999.75C21.0294 999.75 17 995.721 17 990.75C17 985.779 21.0294 981.75 26 981.75C30.9706 981.75 35 985.779 35 990.75ZM26 1062.25C30.9706 1062.25 35 1058.22 35 1053.25C35 1048.28 30.9706 1044.25 26 1044.25C21.0294 1044.25 17 1048.28 17 1053.25C17 1058.22 21.0294 1062.25 26 1062.25ZM35 1084.5C35 1089.47 30.9706 1093.5 26 1093.5C21.0294 1093.5 17 1089.47 17 1084.5C17 1079.53 21.0294 1075.5 26 1075.5C30.9706 1075.5 35 1079.53 35 1084.5Z" fill="#DBC8B0"/>
</svg>
