<svg width="740" height="1110" viewBox="0 0 740 1110" fill="none" xmlns="http://www.w3.org/2000/svg">
<path fill-rule="evenodd" clip-rule="evenodd" d="M740 0H0V1110H740V0ZM26 32C30.9706 32 35 27.9706 35 23C35 18.0294 30.9706 14 26 14C21.0294 14 17 18.0294 17 23C17 27.9706 21.0294 32 26 32ZM35 523C35 527.971 30.9706 532 26 532C21.0294 532 17 527.971 17 523C17 518.029 21.0294 514 26 514C30.9706 514 35 518.029 35 523ZM26 282C30.9706 282 35 277.971 35 273C35 268.029 30.9706 264 26 264C21.0294 264 17 268.029 17 273C17 277.971 21.0294 282 26 282ZM35 773C35 777.971 30.9706 782 26 782C21.0294 782 17 777.971 17 773C17 768.029 21.0294 764 26 764C30.9706 764 35 768.029 35 773ZM26 157C30.9706 157 35 152.971 35 148C35 143.029 30.9706 139 26 139C21.0294 139 17 143.029 17 148C17 152.971 21.0294 157 26 157ZM35 648C35 652.971 30.9706 657 26 657C21.0294 657 17 652.971 17 648C17 643.029 21.0294 639 26 639C30.9706 639 35 643.029 35 648ZM26 407C30.9706 407 35 402.971 35 398C35 393.029 30.9706 389 26 389C21.0294 389 17 393.029 17 398C17 402.971 21.0294 407 26 407ZM35 898C35 902.971 30.9706 907 26 907C21.0294 907 17 902.971 17 898C17 893.029 21.0294 889 26 889C30.9706 889 35 893.029 35 898ZM26 94.5C30.9706 94.5 35 90.4706 35 85.5C35 80.5294 30.9706 76.5 26 76.5C21.0294 76.5 17 80.5294 17 85.5C17 90.4706 21.0294 94.5 26 94.5ZM35 585.5C35 590.471 30.9706 594.5 26 594.5C21.0294 594.5 17 590.471 17 585.5C17 580.529 21.0294 576.5 26 576.5C30.9706 576.5 35 580.529 35 585.5ZM26 344.5C30.9706 344.5 35 340.471 35 335.5C35 330.529 30.9706 326.5 26 326.5C21.0294 326.5 17 330.529 17 335.5C17 340.471 21.0294 344.5 26 344.5ZM35 835.5C35 840.471 30.9706 844.5 26 844.5C21.0294 844.5 17 840.471 17 835.5C17 830.529 21.0294 826.5 26 826.5C30.9706 826.5 35 830.529 35 835.5ZM26 219.5C30.9706 219.5 35 215.471 35 210.5C35 205.529 30.9706 201.5 26 201.5C21.0294 201.5 17 205.529 17 210.5C17 215.471 21.0294 219.5 26 219.5ZM35 710.5C35 715.471 30.9706 719.5 26 719.5C21.0294 719.5 17 715.471 17 710.5C17 705.529 21.0294 701.5 26 701.5C30.9706 701.5 35 705.529 35 710.5ZM26 469.5C30.9706 469.5 35 465.471 35 460.5C35 455.529 30.9706 451.5 26 451.5C21.0294 451.5 17 455.529 17 460.5C17 465.471 21.0294 469.5 26 469.5ZM35 960.5C35 965.471 30.9706 969.5 26 969.5C21.0294 969.5 17 965.471 17 960.5C17 955.529 21.0294 951.5 26 951.5C30.9706 951.5 35 955.529 35 960.5ZM26 1032C30.9706 1032 35 1027.97 35 1023C35 1018.03 30.9706 1014 26 1014C21.0294 1014 17 1018.03 17 1023C17 1027.97 21.0294 1032 26 1032ZM35 54.25C35 59.2206 30.9706 63.25 26 63.25C21.0294 63.25 17 59.2206 17 54.25C17 49.2794 21.0294 45.25 26 45.25C30.9706 45.25 35 49.2794 35 54.25ZM26 563.25C30.9706 563.25 35 559.221 35 554.25C35 549.279 30.9706 545.25 26 545.25C21.0294 545.25 17 549.279 17 554.25C17 559.221 21.0294 563.25 26 563.25ZM35 304.25C35 309.221 30.9706 313.25 26 313.25C21.0294 313.25 17 309.221 17 304.25C17 299.279 21.0294 295.25 26 295.25C30.9706 295.25 35 299.279 35 304.25ZM26 813.25C30.9706 813.25 35 809.221 35 804.25C35 799.279 30.9706 795.25 26 795.25C21.0294 795.25 17 799.279 17 804.25C17 809.221 21.0294 813.25 26 813.25ZM35 179.25C35 184.221 30.9706 188.25 26 188.25C21.0294 188.25 17 184.221 17 179.25C17 174.279 21.0294 170.25 26 170.25C30.9706 170.25 35 174.279 35 179.25ZM26 688.25C30.9706 688.25 35 684.221 35 679.25C35 674.279 30.9706 670.25 26 670.25C21.0294 670.25 17 674.279 17 679.25C17 684.221 21.0294 688.25 26 688.25ZM35 429.25C35 434.221 30.9706 438.25 26 438.25C21.0294 438.25 17 434.221 17 429.25C17 424.279 21.0294 420.25 26 420.25C30.9706 420.25 35 424.279 35 429.25ZM26 938.25C30.9706 938.25 35 934.221 35 929.25C35 924.279 30.9706 920.25 26 920.25C21.0294 920.25 17 924.279 17 929.25C17 934.221 21.0294 938.25 26 938.25ZM35 116.75C35 121.721 30.9706 125.75 26 125.75C21.0294 125.75 17 121.721 17 116.75C17 111.779 21.0294 107.75 26 107.75C30.9706 107.75 35 111.779 35 116.75ZM26 625.75C30.9706 625.75 35 621.721 35 616.75C35 611.779 30.9706 607.75 26 607.75C21.0294 607.75 17 611.779 17 616.75C17 621.721 21.0294 625.75 26 625.75ZM35 366.75C35 371.721 30.9706 375.75 26 375.75C21.0294 375.75 17 371.721 17 366.75C17 361.779 21.0294 357.75 26 357.75C30.9706 357.75 35 361.779 35 366.75ZM26 875.75C30.9706 875.75 35 871.721 35 866.75C35 861.779 30.9706 857.75 26 857.75C21.0294 857.75 17 861.779 17 866.75C17 871.721 21.0294 875.75 26 875.75ZM35 241.75C35 246.721 30.9706 250.75 26 250.75C21.0294 250.75 17 246.721 17 241.75C17 236.779 21.0294 232.75 26 232.75C30.9706 232.75 35 236.779 35 241.75ZM26 750.75C30.9706 750.75 35 746.721 35 741.75C35 736.779 30.9706 732.75 26 732.75C21.0294 732.75 17 736.779 17 741.75C17 746.721 21.0294 750.75 26 750.75ZM35 491.75C35 496.721 30.9706 500.75 26 500.75C21.0294 500.75 17 496.721 17 491.75C17 486.779 21.0294 482.75 26 482.75C30.9706 482.75 35 486.779 35 491.75ZM26 1000.75C30.9706 1000.75 35 996.721 35 991.75C35 986.779 30.9706 982.75 26 982.75C21.0294 982.75 17 986.779 17 991.75C17 996.721 21.0294 1000.75 26 1000.75ZM35 1054.25C35 1059.22 30.9706 1063.25 26 1063.25C21.0294 1063.25 17 1059.22 17 1054.25C17 1049.28 21.0294 1045.25 26 1045.25C30.9706 1045.25 35 1049.28 35 1054.25ZM26 1094.5C30.9706 1094.5 35 1090.47 35 1085.5C35 1080.53 30.9706 1076.5 26 1076.5C21.0294 1076.5 17 1080.53 17 1085.5C17 1090.47 21.0294 1094.5 26 1094.5Z" fill="#DBC8B0"/>
</svg>
